<?xml version="1.0" encoding="utf-8"?>
<!-- Generator: Adobe Illustrator 15.0.0, SVG Export Plug-In . SVG Version: 6.00 Build 0)  -->
<!DOCTYPE svg PUBLIC "-//W3C//DTD SVG 1.1//EN" "http://www.w3.org/Graphics/SVG/1.1/DTD/svg11.dtd">
<svg version="1.1" id="Layer_1" xmlns="http://www.w3.org/2000/svg" xmlns:xlink="http://www.w3.org/1999/xlink" x="0px" y="0px"
	 width="481px" height="85px" viewBox="0 0 481 85" enable-background="new 0 0 481 85" xml:space="preserve">
<rect x="22.559" y="22.527" fill-rule="evenodd" clip-rule="evenodd" fill="#F15A22" width="10.565" height="43.558"/>
<polygon fill-rule="evenodd" clip-rule="evenodd" fill="#F15A22" points="65.985,32.929 22.571,32.929 22.571,22.365 66.44,22.365 
	66.44,32.929 66.44,33.134 65.985,33.134 "/>
<polygon fill-rule="evenodd" clip-rule="evenodd" fill="#F15A22" points="23.665,66.085 67.079,66.085 67.079,55.832 23.209,55.832 
	23.209,66.085 "/>
<g>
	<path fill-rule="evenodd" clip-rule="evenodd" fill="#F15A22" d="M4.122,66.12h10.564V17.238c0-1.081,0.879-1.96,1.96-1.96h20.509
		V3.924H4.566H4.122v5.944c-0.001,0.457-0.001,0.95,0,1.508v0.129v0.133v1.315V66.12z"/>
	<path fill="#282829" d="M293.679,19.65L279.14,52.262c-0.241,0.543-0.766,0.884-1.354,0.881c-0.588,0-1.11-0.344-1.349-0.888
		L262.114,19.65h-2.252h-6.08l3.121,8.078l16.25,36.735c0.175,0.397,0.173,0.834-0.003,1.23l-7.638,17.131h8.79l2.802-6.284
		l25.364-56.891H293.679z"/>
	<polygon fill="#282829" points="216.559,11.785 216.559,66.207 224.538,66.207 224.538,3.92 216.559,3.92 	"/>
	<path fill="#282829" d="M377.121,18.87c-0.977-0.12-1.96-0.181-2.943-0.181c-0.984,0-1.968,0.06-2.943,0.181
		c-11.887,1.468-20.815,11.608-20.815,23.577c0,11.97,8.929,22.108,20.814,23.578c0.978,0.12,1.96,0.181,2.944,0.181
		s1.967-0.061,2.943-0.181c11.887-1.47,20.814-11.608,20.814-23.578C397.937,30.479,389.008,20.339,377.121,18.87 M376.779,58.013
		c-0.858,0.142-1.73,0.215-2.602,0.215c-0.872,0-1.744-0.072-2.604-0.215l-0.217-0.036c-7.502-1.346-12.96-7.916-12.96-15.529
		c0-7.7,5.575-14.305,13.178-15.564c0.86-0.143,1.73-0.215,2.603-0.215c0.871,0,1.743,0.072,2.602,0.214l0.205,0.034
		c7.509,1.341,12.973,7.914,12.973,15.531C389.958,50.147,384.382,56.752,376.779,58.013"/>
	<path fill="#282829" d="M427.896,18.87c-0.976-0.12-1.96-0.181-2.943-0.181s-1.967,0.06-2.942,0.181
		c-11.887,1.468-20.816,11.608-20.816,23.577c0,11.97,8.93,22.108,20.815,23.578c0.978,0.12,1.96,0.181,2.943,0.181
		c0.984,0,1.968-0.061,2.943-0.181c11.888-1.47,20.815-11.608,20.815-23.578C448.712,30.479,439.783,20.339,427.896,18.87
		 M427.555,58.013c-0.859,0.142-1.73,0.215-2.603,0.215c-0.871,0-1.743-0.072-2.604-0.215l-0.216-0.036
		c-7.501-1.346-12.96-7.916-12.96-15.529c0-7.7,5.576-14.305,13.177-15.564c0.861-0.143,1.731-0.215,2.603-0.215
		c0.872,0,1.743,0.072,2.603,0.214l0.206,0.034c7.506,1.341,12.971,7.914,12.971,15.531
		C440.732,50.147,435.156,56.752,427.555,58.013"/>
	<path fill="#282829" d="M242.916,19.463h-1.48v-1.48v-4.406V3.91h-7.979v15.553h-3.99v7.979h3.99v35.85
		c0,1.61,1.305,2.915,2.915,2.915h14.557v-7.979h-8.405c-0.602,0-1.091-0.488-1.091-1.091l0.003-28.565
		c0-0.603,0.489-1.091,1.091-1.091h8.402v-8.018h-5.948H242.916z"/>
	<path fill="#282829" d="M338.686,3.9v20.785c-3.487-3.104-7.906-5.206-12.837-5.815c-0.976-0.121-1.96-0.181-2.943-0.181
		s-1.967,0.06-2.943,0.181c-11.886,1.468-20.815,11.607-20.815,23.577c0.001,11.97,8.929,22.109,20.815,23.577
		c0.977,0.121,1.959,0.183,2.943,0.183c0.983,0,1.968-0.062,2.943-0.183c4.931-0.608,9.35-2.71,12.837-5.814v5.864h7.979V42.448V3.9
		h-3.99H338.686z M325.508,58.013c-0.858,0.143-1.73,0.214-2.603,0.214c-0.871,0-1.743-0.071-2.603-0.214l-0.218-0.036
		c-7.501-1.345-12.959-7.916-12.959-15.529c0.001-7.7,5.576-14.304,13.177-15.564c0.86-0.143,1.731-0.215,2.603-0.215
		c0.872,0,1.743,0.072,2.603,0.214l0.204,0.034c7.508,1.341,12.974,7.913,12.974,15.531
		C338.686,50.147,333.109,56.753,325.508,58.013"/>
	<path fill="#282829" d="M202.991,19.076v5.61c-3.487-3.104-7.906-5.206-12.836-5.815c-0.976-0.121-1.96-0.181-2.944-0.181
		c-0.984,0-1.967,0.06-2.944,0.181c-11.885,1.468-20.814,11.607-20.814,23.577s8.929,22.109,20.814,23.577
		c0.977,0.121,1.961,0.183,2.944,0.183c0.984,0,1.968-0.062,2.944-0.183c4.93-0.608,9.349-2.71,12.836-5.814v5.864h7.979v-39.02
		v-7.979h-3.99H202.991z M189.814,58.013c-0.86,0.143-1.731,0.214-2.603,0.214c-0.871,0-1.743-0.071-2.603-0.214l-0.217-0.036
		c-7.5-1.345-12.959-7.916-12.959-15.529c0.001-7.7,5.576-14.304,13.176-15.564c0.86-0.143,1.732-0.215,2.603-0.215
		c0.872,0,1.743,0.072,2.603,0.214l0.204,0.034c7.508,1.341,12.973,7.913,12.973,15.531
		C202.991,50.147,197.415,56.753,189.814,58.013"/>
	<path fill="#282829" d="M86.867,19.463v46.744h7.979V28.921c0-0.817,0.664-1.481,1.48-1.481h15.492v-7.977H87.202H86.867z"/>
	<path fill="#282829" d="M452.818,19.463v46.744h7.979V28.921c0-0.817,0.664-1.481,1.479-1.481h15.492v-7.977H452.818z"/>
	<path fill="#282829" d="M135.861,18.689c-11.969,0-22.108,8.93-23.578,20.816c-0.12,0.976-0.279,1.645-0.279,2.628
		c0,0-0.469,8.833,4.919,15.855c1.622,2.116,3.729,4.059,6.584,5.555c2.855,1.495,6.457,2.543,11.07,2.869
		c3.157,0.222,5.636,0.067,7.9-0.373c3.775-0.733,6.661-2.217,8.947-3.754c5.062-3.403,7.251-6.767,7.251-6.767l-11.481-0.147
		c-5.617,3.673-11.725,3.229-14.978,2.795c-1.084-0.144-2.158-0.369-3.173-0.774c-7.248-2.897-8.452-10.955-8.452-10.955h39.055
		v-1.045c0.12-0.977-0.026-1.96-0.026-2.943s-0.06-1.967-0.18-2.943C157.97,27.619,147.832,18.689,135.861,18.689 M131.689,38.459
		h-4.884h-6.214c0.172-0.663,0.388-1.316,0.648-1.954c0.01-0.03,0.022-0.061,0.034-0.091c1.015-2.458,2.636-4.613,4.717-6.279
		c2.807-2.255,6.271-3.469,9.872-3.469c3.59,0,7.07,1.228,9.872,3.469c2.078,1.662,3.702,3.819,4.717,6.279
		c0.013,0.03,0.024,0.06,0.035,0.09c0.101,0.249,0.196,0.501,0.284,0.755l0.419,1.2H131.689z"/>
	<polygon fill-rule="evenodd" clip-rule="evenodd" fill="#F15A22" points="58.887,66.085 69.621,66.085 69.621,3.899 59.058,3.899 
		58.852,3.899 	"/>
</g>
</svg>
